<svg width="28" height="28" viewBox="0 0 28 28" fill="none" xmlns="http://www.w3.org/2000/svg">
<g clip-path="url(#clip0_1103_1570)">
<path d="M21.4297 24.0013C22.85 24.0013 24.0013 22.85 24.0013 21.4297C24.0013 20.0095 22.85 18.8582 21.4297 18.8582C20.0095 18.8582 18.8582 20.0095 18.8582 21.4297C18.8582 22.85 20.0095 24.0013 21.4297 24.0013Z" stroke="#75B4FF" stroke-width="1.29" stroke-linecap="round" stroke-linejoin="round"/>
<path d="M7.71471 6.00037H18.001C18.9103 6.00037 19.7824 6.36161 20.4255 7.00462C21.0685 7.64764 21.4297 8.51976 21.4297 9.42912C21.4297 10.3385 21.0685 11.2106 20.4255 11.8536C19.7824 12.4966 18.9103 12.8579 18.001 12.8579H7.71471C6.57801 12.8579 5.48786 13.3094 4.68409 14.1132C3.88032 14.917 3.42877 16.0071 3.42877 17.1438C3.42877 18.2805 3.88032 19.3707 4.68409 20.1744C5.48786 20.9782 6.57801 21.4297 7.71471 21.4297H18.8581" stroke="#75B4FF" stroke-width="1.29" stroke-linecap="round" stroke-linejoin="round"/>
</g>
<defs>
<clipPath id="clip0_1103_1570">
<rect width="27.43" height="27.43" fill="white"/>
</clipPath>
</defs>
</svg>
