<svg width="29" height="28" fill="none" xmlns="http://www.w3.org/2000/svg"><g clip-path="url(#a)" stroke="#75B4FF" stroke-width="1.286" stroke-linecap="round" stroke-linejoin="round"><path d="m15.81 18.852-2.058 5.583a.856.856 0 0 1-1.607 0l-2.057-5.583a.867.867 0 0 0-.515-.514l-5.582-2.057a.857.857 0 0 1 0-1.607l5.582-2.058a.867.867 0 0 0 .515-.514l2.057-5.582a.858.858 0 0 1 1.607 0l2.057 5.582a.867.867 0 0 0 .515.514l5.582 2.058a.857.857 0 0 1 0 1.607l-5.582 2.057a.868.868 0 0 0-.515.514v0ZM19.806 1.763v5.143M22.378 4.334h-5.143M24.95 7.763v3.428M26.664 9.477h-3.43"/></g><defs><clipPath id="a"><path fill="#fff" transform="translate(.948 .048)" d="M0 0h27.43v27.43H0z"/></clipPath></defs></svg>